<svg width="121" height="158" viewBox="0 0 121 158" fill="none" xmlns="http://www.w3.org/2000/svg">
<path d="M0.000247731 156.481L0.000247598 158L120.02 158L120.02 100.269C93.4329 100.269 56.2115 100.239 44.058 103.308C31.9039 106.377 25.8271 113.09 18.231 122.298C10.6344 131.506 0.000247731 156.481 0.000247731 156.481Z" fill="#E8E8E8"/>
<path d="M18.2307 122.298C10.6345 131.414 -6.10352e-05 156.481 -6.10352e-05 156.481L-6.17656e-05 148.125C-6.17656e-05 148.125 2.27878 97.9904 18.2307 79.7597C34.1826 61.5289 48.6153 57.7308 88.1154 57.7308L120.019 57.7308L120.019 100.269C93.4329 100.269 56.2115 100.269 44.0577 103.308C31.9038 106.346 25.8269 113.183 18.2307 122.298Z" fill="#F05454"/>
<path fill-rule="evenodd" clip-rule="evenodd" d="M120.019 57.8065L120.019 -2.57492e-05L0.000191949 -3.62416e-05L0.000178933 148.885C0.000178933 148.885 2.27862 98.3707 18.231 80.0021C34.1829 61.6335 48.6154 57.8065 88.1158 57.8065L120.019 57.8065Z" fill="#30475E"/>
</svg>
