<svg width="92" height="120" viewBox="1 0 92 120" fill="none" xmlns="http://www.w3.org/2000/svg">
<path fill-rule="evenodd" clip-rule="evenodd" d="M0.531189 76.0964V120H91.685V6.9231C91.685 6.9231 89.9546 45.2881 77.8388 59.2389C65.7235 73.1898 54.7621 76.0964 24.7618 76.0964H0.531189Z" fill="#E8E8E8"/>
<path d="M77.8389 27.1155C83.6081 20.1924 92 0 92 0V7.50008C91.6851 7.50008 89.9543 45.577 77.8389 59.4232C65.7235 73.2693 54.762 76.1539 24.762 76.1539H0.531189V43.8462C20.7235 43.8462 48.9927 43.8462 58.2235 41.5385C67.4543 39.2309 72.0697 34.0385 77.8389 27.1155Z" fill="#F05454"/>
<path d="M91.685 0V0H0.531189V43.8462C20.7235 43.8462 48.993 43.8694 58.2235 41.5385C67.4544 39.2071 72.0697 34.109 77.8389 27.1154C83.6085 20.1217 92 0 92 0" fill="#30475E"/>
</svg>
