<svg width="121" height="158" viewBox="0 0 121 158" fill="none" xmlns="http://www.w3.org/2000/svg">
<path d="M0.000247731 156.481L0.000247598 158L120.02 158L120.02 100.269C93.4329 100.269 56.2115 100.239 44.058 103.308C31.9039 106.377 25.8271 113.09 18.231 122.298C10.6344 131.506 0.000247731 156.481 0.000247731 156.481Z" fill="#222831"/>
<path d="M18.2307 122.298C10.6345 131.414 -6.10352e-05 156.481 -6.10352e-05 156.481L-6.17656e-05 148.125C-6.17656e-05 148.125 2.27878 97.9906 18.2307 79.7598C34.1826 61.529 48.6153 57.7309 88.1154 57.7309L120.019 57.7309L120.019 100.269C93.4329 100.269 56.2115 100.269 44.0577 103.308C31.9038 106.346 25.8269 113.183 18.2307 122.298Z" fill="#F05454"/>
<path fill-rule="evenodd" clip-rule="evenodd" d="M120.019 57.8066L120.019 9.63211e-05L0.000191949 8.58287e-05L0.000178933 148.885C0.000178933 148.885 2.27862 98.3708 18.231 80.0022C34.1829 61.6336 48.6154 57.8066 88.1158 57.8066L120.019 57.8066Z" fill="#E8E8E8"/>
</svg>
