<svg width="92" height="120" viewBox="1 0 92 120" fill="none" xmlns="http://www.w3.org/2000/svg">
<path fill-rule="evenodd" clip-rule="evenodd" d="M0.531189 76.0964V120H91.685V6.9231C91.685 6.9231 89.9546 45.2881 77.8388 59.2389C65.7235 73.1898 54.7621 76.0964 24.7618 76.0964H0.531189Z" fill="#222831"/>
<path d="M77.8389 27.1153C83.6081 20.1923 91.6851 1.15381 91.6851 1.15381V7.49996C91.6851 7.49996 89.9543 45.5769 77.8389 59.423C65.7235 73.2692 54.762 76.1538 24.762 76.1538H0.531189V43.8461C20.7235 43.8461 48.9927 43.8461 58.2235 41.5384C67.4543 39.2307 72.0697 34.0384 77.8389 27.1153Z" fill="#F05454"/>
<path d="M91.685 1.15385V0H0.531189V43.8462C20.7235 43.8462 48.993 43.8694 58.2235 41.5385C67.4544 39.2071 72.0697 34.109 77.8389 27.1154C83.6085 20.1217 91.685 1.15385 91.685 1.15385Z" fill="#E8E8E8"/>
</svg>
