<svg width="92" height="120" viewBox="0 0 92 120" fill="none" xmlns="http://www.w3.org/2000/svg">
<path d="M0.000193935 118.846L0.000193834 120L91.154 120L91.154 76.1538C70.9617 76.1538 42.6922 76.1306 33.4617 78.4615C24.2308 80.7929 19.6155 85.891 13.8463 92.8846C8.07673 99.8783 0.000193935 118.846 0.000193935 118.846Z" fill="#30475E"/>
<path d="M13.8461 92.8847C8.07688 99.8077 -4.57764e-05 118.846 -4.57764e-05 118.846L-4.63312e-05 112.5C-4.63312e-05 112.5 1.73072 74.4231 13.8461 60.577C25.9615 46.7308 36.923 43.8462 66.923 43.8462L91.154 43.8462L91.154 76.1539C70.9617 76.1539 42.6923 76.1539 33.4615 78.4616C24.2307 80.7693 19.6153 85.9616 13.8461 92.8847Z" fill="#F05454"/>
<path fill-rule="evenodd" clip-rule="evenodd" d="M91.154 43.9036L91.154 -6.19888e-06L0.000150314 -1.41678e-05L0.000140429 113.077C0.000140429 113.077 1.7306 74.7119 13.8464 60.7611C25.9617 46.8102 36.9231 43.9036 66.9233 43.9036L91.154 43.9036Z" fill="#E8E8E8"/>
</svg>
