<svg width="120" height="158" viewBox="0 0 120 158" fill="none" xmlns="http://www.w3.org/2000/svg">
<path fill-rule="evenodd" clip-rule="evenodd" d="M0 100.194V158H120.019V9.11542C120.019 9.11542 117.741 59.6294 101.788 77.998C85.8366 96.3666 71.4041 100.194 31.9037 100.194H0Z" fill="#30475E"/>
<path d="M101.789 35.7019C109.385 26.5865 120.019 1.51923 120.019 1.51923V9.875C120.019 9.875 117.74 60.0096 101.789 78.2404C85.8366 96.4712 71.4039 100.269 31.9039 100.269H0V57.7308C26.5865 57.7308 63.8077 57.7308 75.9616 54.6923C88.1154 51.6539 94.1924 44.8173 101.789 35.7019Z" fill="#F05454"/>
<path d="M120.019 1.51923V0H0V57.7308C26.5866 57.7308 63.8081 57.7614 75.9616 54.6923C88.1157 51.6227 94.1924 44.9102 101.789 35.7019C109.385 26.4936 120.019 1.51923 120.019 1.51923Z" fill="#E8E8E8"/>
</svg>
